<svg width="97" height="77" viewBox="0 0 97 77" fill="none" xmlns="http://www.w3.org/2000/svg">
<path d="M58.8033 23.1954C58.8033 18.9692 62.2632 15.5431 66.5308 15.5431C70.7985 15.5431 74.2584 18.9692 74.2584 23.1954C74.2584 27.4217 70.7985 30.8477 66.5308 30.8477C62.2632 30.8477 58.8033 27.4217 58.8033 23.1954Z" fill="white" fill-opacity="0.5"/>
<path fill-rule="evenodd" clip-rule="evenodd" d="M24.1197 1.04737C40.3427 -0.349123 56.6571 -0.349123 72.8803 1.04737L80.6604 1.7171C88.1051 2.35796 94.1362 7.96786 95.2474 15.2854C97.5842 30.6753 97.5842 46.3247 95.2474 61.7145C94.1362 69.0322 88.1051 74.6418 80.6604 75.2831L72.8803 75.9524C56.6571 77.3492 40.3427 77.3492 24.1197 75.9524L16.3395 75.2831C8.89491 74.6418 2.86398 69.0322 1.75276 61.7145C-0.584253 46.3247 -0.584253 30.6753 1.75276 15.2854C2.86398 7.96786 8.89491 2.35796 16.3395 1.7171L24.1197 1.04737ZM72.2111 8.67095C56.4335 7.31277 40.5663 7.31277 24.7889 8.67095L17.0087 9.34068C13.1226 9.67518 9.97445 12.6036 9.39442 16.4233C8.06765 25.1603 7.53296 33.9852 7.79023 42.793L27.7369 23.0407C28.4893 22.2956 29.5188 21.8908 30.5825 21.9217C31.6462 21.9526 32.6498 22.4166 33.3568 23.2042L52.271 44.2755L65.3089 39.9718C66.7673 39.4902 68.3746 39.9106 69.4029 41.0421L87.5322 60.9896C87.56 60.8534 87.5843 60.7157 87.6054 60.5764C89.8278 45.9411 89.8278 31.0589 87.6054 16.4233C87.0253 12.6036 83.8771 9.67518 79.9912 9.34068L72.2111 8.67095ZM82.6051 67.0074L65.3516 48.0241L52.2978 52.3328C50.8311 52.817 49.215 52.3889 48.1877 51.2452L30.3035 31.3211L8.44141 52.9705C8.6927 55.5116 9.01036 58.0476 9.39442 60.5764C9.97445 64.3964 13.1226 67.3247 17.0087 67.6593L24.789 68.3292C40.5663 69.6872 56.4335 69.6872 72.2111 68.3292L79.9912 67.6593C80.9118 67.5803 81.7912 67.3553 82.6051 67.0074Z" fill="white" fill-opacity="0.5"/>
</svg>
